<?xml version="1.0" encoding="UTF-8" standalone="no"?>
<?xml-stylesheet href="https://comsysto.com/custom-code/3rdparty/googlefonts/source-sans-pro/css/font-for-svg.css" type="text/css"?>
<svg width="626" height="755" viewBox="0 0 626 755" xmlns="http://www.w3.org/2000/svg" xmlns:xlink="http://www.w3.org/1999/xlink">
  <defs>
    <path id="a" d="M0 0h626v755H0z"/>
    <mask id="d" x="0" y="0" width="626" height="755" fill="#fff">
      <use xlink:href="#a"/>
    </mask>
    <path d="M0 0h75v24.857H37.5V29H20.833v-4.143H0V0zm4.167 20.714H12.5V8.286h4.167v12.428h4.166V4.144H4.167v16.57zM25 4.144v20.713h8.333v-4.143h8.334V4.144H25zm8.333 4.142H37.5v8.285h-4.167V8.287zm12.5-4.143v16.57h8.334V8.287h4.166v12.428H62.5V8.286h4.167v12.428h4.166V4.144h-25z" id="b"/>
    <mask id="e" x="-2" y="-2" width="79" height="33">
      <path fill="#fff" d="M-2-2h79v33H-2z"/>
      <use xlink:href="#b"/>
    </mask>
    <path d="M263 20h57v18.857h-28.5V42h-12.667v-3.143H263V20zm3.167 15.714h6.333v-9.428h3.167v9.428h3.166v-12.57h-12.666v12.57zM282 23.144v15.713h6.333v-3.143h6.334v-12.57H282zm6.333 3.142h3.167v6.285h-3.167v-6.284zm9.5-3.143v12.57h6.334v-9.427h3.166v9.428h3.167v-9.428h3.167v9.428h3.166v-12.57h-19z" id="c"/>
    <mask id="f" x="-2" y="-2" width="61" height="26">
      <path fill="#fff" d="M261 18h61v26h-61z"/>
      <use xlink:href="#c"/>
    </mask>
  </defs>
  <g fill="none" fill-rule="evenodd">
    <use stroke="#DFDFDF" mask="url(#d)" stroke-width="2" fill="#FDFDFD" xlink:href="#a"/>
    <text font-family="SourceSansPro-Regular, Source Sans Pro" font-size="25" letter-spacing=".33" fill="#555">
      <tspan x="28" y="49">express-starter</tspan>
    </text>
    <path fill="#555" d="M45 81h3v305h-3z"/>
    <path fill="#555" d="M47 127h48v3H47zM45 213h48v3H45zM47 299h48v3H47zM45 385h48v3H45zM119 415h3v150h-3zM122 476h48v3h-48z"/>
    <path stroke="#CCC" stroke-width="2" stroke-linecap="square" stroke-dasharray="6" d="M405.5 214.5h71v233"/>
    <path fill="#CCC" d="M476.5 448l8.5-12h-17"/>
    <text font-family="SourceSansPro-Regular, Source Sans Pro" font-size="20" letter-spacing=".333" fill="#CCC">
      <tspan x="485" y="229">postinstall</tspan>
    </text>
    <path fill="#CB3837" d="M166 450h331v58H166z"/>
    <text font-family="SourceSansPro-Regular, Source Sans Pro" font-size="20" letter-spacing=".333" fill="#FFF" transform="translate(166 450)">
      <tspan x="20" y="23">./node_modules/</tspan> <tspan x="20" y="48">./package.json</tspan>
    </text>
    <g fill-rule="nonzero">
      <g transform="translate(407 468)">
        <use fill="#CB3837" fill-rule="evenodd" xlink:href="#b"/>
        <use stroke="#FFF" mask="url(#e)" stroke-width="4" xlink:href="#b"/>
      </g>
      <path fill="#FFF" d="M411.167 488.714h8.333v-12.428h4.167v12.428h4.166v-16.57h-16.666M432 472.143v20.714h8.333v-4.143h8.334v-16.57H432zm12.5 12.428h-4.167v-8.284h4.167v8.285zM452.833 472.143v16.57h8.334v-12.427h4.166v12.428h4.167v-12.428h4.167v12.428h4.166v-16.57"/>
    </g>
    <path fill="#CB3837" d="M74 184.667h331v58H74z"/>
    <text font-family="SourceSansPro-Regular, Source Sans Pro" font-size="20" letter-spacing=".333" fill="#FFF" transform="translate(74 184.667)">
      <tspan x="17" y="23">./node_modules/</tspan> <tspan x="17" y="48">./package.json</tspan>
    </text>
    <g fill-rule="nonzero" transform="translate(74 184.667)">
      <use fill="#CB3837" fill-rule="evenodd" xlink:href="#c"/>
      <use stroke="#FFF" mask="url(#f)" stroke-width="4" xlink:href="#c"/>
    </g>
    <path fill="#FFF" fill-rule="nonzero" d="M340.167 220.38h6.333v-9.427h3.167v9.428h3.166v-12.57h-12.666M356 207.81v15.714h6.333v-3.143h6.334v-12.57H356zm9.5 9.428h-3.167v-6.285h3.167v6.285zM371.833 207.81v12.57h6.334v-9.427h3.166v9.428h3.167v-9.427h3.167v9.428h3.166v-12.57"/>
    <path fill="#61DAFB" d="M74 99h331v58H74z"/>
    <text font-family="SourceSansPro-Regular, Source Sans Pro" font-size="20" letter-spacing=".333" fill="#FFF" transform="translate(74 99)">
      <tspan x="17" y="36">./src/*.js</tspan>
    </text>
    <g fill="#FFF">
      <path d="M368.615 127.446c0 1.71-1.394 3.097-3.113 3.097-1.72 0-3.113-1.386-3.113-3.097 0-1.71 1.393-3.097 3.112-3.097 1.72 0 3.113 1.386 3.113 3.096z"/>
      <path d="M376.25 123.45c3.225 1.104 5.192 2.737 5.192 3.996 0 1.34-2.125 3.082-5.575 4.22-2.747.905-6.423 1.4-10.365 1.4-4.142 0-7.86-.485-10.574-1.41-1.7-.577-3.103-1.328-4.066-2.148-.864-.737-1.3-1.468-1.3-2.062 0-1.263 1.892-2.874 5.048-3.97 2.906-1.007 6.82-1.586 10.892-1.586 4.022 0 7.842.564 10.747 1.56zm-22.13-1.372c-3.69 1.28-6.048 3.287-6.048 5.368 0 2.15 2.53 4.306 6.374 5.613 2.89.982 6.763 1.486 11.056 1.486 4.09 0 7.92-.514 10.833-1.474 3.996-1.318 6.596-3.447 6.596-5.626 0-2.09-2.432-4.11-6.197-5.398-3.07-1.052-7.053-1.64-11.23-1.64-4.23 0-8.31.604-11.383 1.67z" fill-rule="nonzero"/>
      <path d="M367.364 116.2c2.573-2.227 4.978-3.107 6.074-2.478 1.168.67 1.622 3.37.888 6.913-.584 2.82-1.99 6.235-3.96 9.633-2.07 3.57-4.347 6.532-6.507 8.41-1.354 1.178-2.71 2.012-3.904 2.432-1.073.377-1.928.388-2.445.092-1.098-.63-1.555-3.067-.932-6.335.574-3.008 2.025-6.67 4.06-10.18 2.008-3.468 4.408-6.48 6.726-8.486zm-12.25 18.39c-.728 3.82-.158 6.855 1.654 7.895 1.87 1.074 5.012-.03 8.07-2.69 2.3-2 4.674-5.086 6.818-8.786 2.044-3.528 3.51-7.086 4.13-10.076.848-4.103.293-7.408-1.604-8.496-1.818-1.043-4.792.045-7.796 2.645-2.45 2.12-4.95 5.26-7.04 8.862-2.112 3.647-3.624 7.464-4.23 10.646z" fill-rule="nonzero"/>
      <path d="M356.614 120.24c-.655-3.33-.22-5.844.875-6.474 1.165-.672 3.744.286 6.462 2.687 2.164 1.912 4.434 4.83 6.41 8.225 2.075 3.566 3.516 7.01 4.073 9.81.35 1.753.4 3.34.168 4.578-.208 1.114-.625 1.856-1.142 2.153-1.097.632-3.447-.19-5.98-2.36-2.333-1.997-4.798-5.077-6.838-8.584-2.015-3.463-3.438-7.036-4.028-10.035zm9.894 19.743c2.963 2.537 5.89 3.56 7.7 2.52 1.87-1.078 2.477-4.337 1.688-8.303-.593-2.98-2.095-6.568-4.246-10.265-2.05-3.523-4.416-6.563-6.71-8.59-3.148-2.78-6.303-3.953-8.198-2.862-1.816 1.047-2.354 4.154-1.59 8.042.624 3.17 2.108 6.895 4.2 10.494 2.12 3.642 4.69 6.85 7.156 8.963z" fill-rule="nonzero"/>
    </g>
    <g>
      <path fill="#CD6799" d="M75 270.333h331v58H75z"/>
      <path d="M384.303 302.042c-1.67.01-3.122.41-4.337 1.005-.446-.883-.892-1.67-.97-2.246-.088-.672-.193-1.082-.088-1.886.105-.804.577-1.95.57-2.036-.01-.087-.106-.498-1.068-.507-.962-.008-1.793.185-1.89.438-.095.253-.278.83-.4 1.424-.167.874-1.924 3.994-2.93 5.628-.323-.638-.603-1.198-.664-1.643-.088-.673-.193-1.084-.088-1.888.105-.804.577-1.95.57-2.036-.01-.088-.106-.5-1.068-.507-.962-.01-1.792.183-1.89.437-.095.253-.2.847-.4 1.424-.202.577-2.536 5.784-3.148 7.13-.315.69-.586 1.24-.78 1.616 0 0-.007.027-.033.07-.168.324-.264.498-.264.498v.01c-.13.235-.27.454-.34.454-.053 0-.15-.63.017-1.486.35-1.81 1.18-4.622 1.17-4.718 0-.053.16-.542-.54-.795-.683-.254-.928.166-.99.166-.06 0-.104.148-.104.148s.76-3.162-1.452-3.162c-1.38 0-3.287 1.512-4.232 2.875-.594.323-1.862 1.013-3.217 1.756-.517.287-1.05.576-1.55.847-.034-.035-.07-.08-.104-.114-2.675-2.857-7.624-4.876-7.414-8.712.08-1.397.56-5.067 9.504-9.523 7.362-3.626 13.22-2.62 14.234-.393 1.45 3.18-3.14 9.087-10.746 9.944-2.902.323-4.424-.796-4.808-1.215-.402-.437-.464-.463-.612-.376-.245.13-.088.525 0 .752.227.593 1.163 1.64 2.745 2.157 1.398.454 4.8.708 8.917-.883 4.608-1.782 8.21-6.736 7.152-10.887-1.06-4.212-8.053-5.6-14.672-3.25-3.934 1.398-8.2 3.6-11.27 6.466-3.646 3.407-4.223 6.37-3.987 7.61.85 4.404 6.926 7.27 9.356 9.394-.122.07-.236.13-.332.183-1.215.603-5.85 3.023-7.003 5.584-1.31 2.9.21 4.98 1.216 5.26 3.12.865 6.33-.69 8.053-3.26 1.72-2.568 1.51-5.906.716-7.435-.01-.02-.018-.036-.035-.054.315-.183.64-.376.954-.56.62-.366 1.232-.707 1.757-.986-.296.812-.515 1.782-.62 3.18-.13 1.643.542 3.775 1.425 4.614.394.367.857.375 1.154.375 1.03 0 1.494-.857 2.01-1.87.63-1.24 1.198-2.683 1.198-2.683s-.708 3.897 1.215 3.897c.7 0 1.408-.91 1.723-1.372v.01l.052-.088.114-.184v-.017c.28-.49.91-1.6 1.845-3.443 1.206-2.377 2.37-5.348 2.37-5.348s.104.726.463 1.93c.21.71.647 1.487.996 2.238-.28.394-.454.612-.454.612l.008.01c-.227.296-.472.62-.743.934-.953 1.136-2.09 2.438-2.247 2.813-.183.445-.14.768.21 1.03.254.193.708.22 1.172.193.856-.062 1.46-.27 1.757-.402.462-.165 1.004-.42 1.512-.795.935-.69 1.503-1.677 1.45-2.98-.025-.716-.26-1.432-.55-2.105.088-.122.166-.245.254-.367 1.477-2.158 2.623-4.526 2.623-4.526s.104.725.462 1.93c.175.613.533 1.277.848 1.923-1.39 1.127-2.247 2.438-2.553 3.294-.55 1.59-.122 2.307.69 2.473.368.08.893-.096 1.277-.262.49-.157 1.067-.428 1.618-.83.935-.69 1.836-1.65 1.783-2.953-.026-.595-.183-1.18-.402-1.748 1.18-.49 2.702-.76 4.643-.533 4.162.49 4.983 3.085 4.826 4.178-.157 1.092-1.032 1.686-1.32 1.87-.29.183-.385.244-.36.375.036.193.176.184.42.15.342-.062 2.187-.884 2.266-2.893.13-2.57-2.317-5.374-6.645-5.348zm-32.105 10.818c-1.382 1.502-3.305 2.07-4.136 1.59-.892-.516-.542-2.735 1.154-4.325 1.032-.97 2.36-1.87 3.244-2.42.2-.123.498-.298.857-.516.06-.036.096-.054.096-.054l.21-.13c.62 2.27.026 4.272-1.425 5.854zm10.054-6.833c-.48 1.17-1.486 4.167-2.098 4-.524-.138-.848-2.41-.105-4.656.375-1.126 1.17-2.472 1.634-2.996.752-.84 1.583-1.118 1.784-.778.253.446-.918 3.697-1.216 4.43zm8.298 3.967c-.2.104-.394.174-.48.122-.062-.035.086-.175.086-.175s1.04-1.117 1.452-1.624c.236-.297.515-.647.813-1.04v.114c0 1.337-1.293 2.237-1.87 2.604zm6.4-1.46c-.15-.105-.123-.454.376-1.546.192-.428.647-1.145 1.425-1.835.088.28.15.55.14.804-.008 1.686-1.215 2.315-1.94 2.577z" fill-rule="nonzero" fill="#FFF"/>
      <text font-family="SourceSansPro-Regular, Source Sans Pro" font-size="20" letter-spacing=".333" fill="#FFF" transform="translate(75 270.333)">
        <tspan x="17" y="35">./scss/*.scss</tspan>
      </text>
    </g>
    <g>
      <path fill="#428BCA" d="M74 356h331v58H74z"/>
      <text font-family="SourceSansPro-Regular, Source Sans Pro" font-size="20" letter-spacing=".333" fill="#FFF" transform="translate(74 356)">
        <tspan x="17" y="35">./server/</tspan>
      </text>
    </g>
    <circle fill="#555" cx="46.5" cy="83.5" r="5.5"/>
    <path fill="#026E00" d="M166 536h331v184H166z"/>
    <g fill="#FFF">
      <path d="M453.684 549.276c-.438 0-.864.09-1.24.305l-11.923 6.91c-.77.445-1.24 1.288-1.24 2.184v13.79c0 .896.47 1.738 1.24 2.185l3.114 1.802c1.513.748 2.07.736 2.76.736 2.24 0 3.518-1.363 3.518-3.733v-13.613c0-.193-.166-.33-.354-.33h-1.494c-.19 0-.354.137-.354.33v13.613c0 1.05-1.09 2.107-2.86 1.22l-3.24-1.906c-.115-.063-.203-.174-.203-.305v-13.79c0-.132.087-.265.202-.332l11.896-6.882c.112-.064.245-.064.355 0l11.898 6.883c.114.07.203.196.203.33v13.792c0 .13-.065.266-.176.33l-11.923 6.882c-.1.06-.242.06-.354 0l-3.062-1.828c-.092-.055-.216-.05-.304 0-.846.48-1.005.536-1.797.812-.196.068-.493.174.1.508l4 2.36c.38.223.805.332 1.24.332.442 0 .86-.11 1.24-.33l11.924-6.883c.77-.452 1.24-1.29 1.24-2.185v-13.79c0-.897-.47-1.738-1.24-2.186l-11.923-6.91c-.374-.213-.802-.304-1.24-.304zm17.694.356v.356h.987v2.616h.405v-2.616h1.013v-.356h-2.405zm2.76 0v2.972h.38v-1.753c0-.07.002-.18 0-.33-.006-.15 0-.28 0-.355v-.076l.834 2.513h.405l.86-2.514c0 .16-.02.313-.024.456-.002.14 0 .244 0 .305v1.753h.38v-2.97h-.558l-.86 2.513-.836-2.514h-.583zm-17.265 9.5c-3.395 0-5.417 1.45-5.417 3.86 0 2.615 2.007 3.333 5.265 3.657 3.9.38 4.203.956 4.203 1.726 0 1.335-1.06 1.904-3.57 1.904-3.15 0-3.842-.79-4.074-2.362-.03-.168-.158-.304-.33-.304h-1.545c-.19 0-.354.164-.354.355 0 2.012 1.093 4.393 6.304 4.393 3.773 0 5.95-1.486 5.95-4.09 0-2.58-1.76-3.272-5.418-3.758-3.698-.49-4.05-.73-4.05-1.6 0-.717.298-1.676 3.037-1.676 2.446 0 3.35.528 3.72 2.183.034.156.17.28.33.28h1.544c.096 0 .188-.06.254-.128.065-.073.11-.155.102-.253-.24-2.85-2.134-4.19-5.95-4.19z"/>
    </g>
    <text font-family="SourceSansPro-Regular, Source Sans Pro" font-size="20" letter-spacing=".333" fill="#FFF">
      <tspan x="183" y="571">./views/</tspan> <tspan x="183" y="596">./public/</tspan> <tspan x="183" y="621">./routes/</tspan> <tspan x="183" y="646">./ssl/</tspan> <tspan x="183" y="671">./app.js</tspan> <tspan x="183" y="696">./server.js</tspan>
    </text>
    <path fill="#555" d="M122 562h48v3h-48z"/>
    <g fill="#FFF">
      <path d="M369.362 368.853c-1.058 0-1.915-.862-1.915-1.926s.857-1.927 1.915-1.927c1.057 0 1.915.863 1.915 1.927s-.858 1.926-1.915 1.926zm0-.963c.528 0 .957-.43.957-.963 0-.532-.43-.964-.958-.964-.53 0-.958.432-.958.964s.43.963.958.963z"/>
      <path d="M383.717 391.376l.004.004-.314.184-13.723 8.028-.473.277-.002-.005v.003l-.488-.277-13.085-7.705-.484-.286-.112-.08-.038-.01V374.525h.01v-.013l.466-.274 11.49-6.744.55-.324.644 1.11-.55.323-11.333 6.65v15.52h.003l12.923 7.612 13.244-7.747v-14.478h1.276v15.214h-.006z" fill-rule="nonzero"/>
      <path d="M383.085 376.56c-1.057 0-1.915-.863-1.915-1.927s.858-1.927 1.915-1.927c1.058 0 1.915.863 1.915 1.927s-.857 1.927-1.915 1.927zm0-.964c.53 0 .958-.43.958-.963 0-.532-.43-.963-.958-.963-.53 0-.957.43-.957.963 0 .532.428.963.957.963z"/>
      <path d="M369.302 372.265l-9.516 5.494-.554.318-.71-1.065.153-.094.475-.275 9.734-5.62.263-.15.11-.046v-.003h.109l.17.095.46.262 9.41 5.365.164.093.33.192-.404 1.242-.555-.316-9.574-5.458-.064-.037z" fill-rule="nonzero"/>
      <path d="M378.617 388.713l-9.415 5.5-9.415-5.5V376.88h-1.02l-.256.147V389.476l.15.064.168.098 9.894 5.78.323.188h.318l.002-.003.317-.185 9.894-5.78.11-.065.203-.13v-.04h.004v-12.559l-1.277.038v11.833z" fill-rule="nonzero"/>
      <path d="M368.576 383.776l-.16-.283-9.268-5.415-.552-.322.64-1.11.553.322 9.418 5.502 9.094-5.185.556-.316.63 1.116-.556.317-8.932 5.092v11.689h-1.277l-.147-.642v-10.764z" fill-rule="nonzero"/>
      <path fill-rule="nonzero" d="M368.723 379.8v.613l.64.357.637-.357v-6.415l-.638-.354-.64.354v.437M361.566 387.026l-.53.306.01.732.628.374.53-.306 4.647-2.683.38-.22-.014-.728-.625-.377-.378.218M376.27 388.132l.53.306.63-.373.01-.733-.532-.306-4.646-2.683-.38-.218-.624.377-.013.73.378.217"/>
    </g>
  </g>
</svg>
